<mxfile host="Electron" agent="Mozilla/5.0 (X11; Linux x86_64) AppleWebKit/537.36 (KHTML, like Gecko) draw.io/28.1.2 Chrome/138.0.7204.243 Electron/37.4.0 Safari/537.36" version="28.1.2">
  <diagram name="Страница — 1" id="-PB3Ro5CnKB0eiYqRgEP">
    <mxGraphModel dx="946" dy="581" grid="1" gridSize="10" guides="1" tooltips="1" connect="1" arrows="1" fold="1" page="1" pageScale="1" pageWidth="827" pageHeight="1169" math="0" shadow="0">
      <root>
        <mxCell id="0" />
        <mxCell id="1" parent="0" />
        <mxCell id="MHCaHPjammbPc1H4pTVP-43" style="edgeStyle=orthogonalEdgeStyle;rounded=0;orthogonalLoop=1;jettySize=auto;html=1;exitX=0.25;exitY=0;exitDx=0;exitDy=0;" parent="1" source="MHCaHPjammbPc1H4pTVP-40" target="MHCaHPjammbPc1H4pTVP-39" edge="1">
          <mxGeometry relative="1" as="geometry" />
        </mxCell>
        <mxCell id="MHCaHPjammbPc1H4pTVP-39" value="Subject" style="swimlane;childLayout=stackLayout;horizontal=1;startSize=50;horizontalStack=0;rounded=1;fontSize=14;fontStyle=0;strokeWidth=2;resizeParent=0;resizeLast=1;shadow=0;dashed=0;align=center;arcSize=4;whiteSpace=wrap;html=1;" parent="1" vertex="1">
          <mxGeometry x="80" y="40" width="121" height="120" as="geometry">
            <mxRectangle x="9" y="10" width="140" height="50" as="alternateBounds" />
          </mxGeometry>
        </mxCell>
        <mxCell id="MHCaHPjammbPc1H4pTVP-40" value="&lt;span style=&quot;font-size: 14px; text-align: center;&quot;&gt;id&lt;/span&gt;&lt;div style=&quot;text-align: center;&quot;&gt;&lt;span style=&quot;font-size: 14px;&quot;&gt;name&lt;/span&gt;&lt;/div&gt;" style="align=left;strokeColor=none;fillColor=none;spacingLeft=4;spacingRight=4;fontSize=12;verticalAlign=top;resizable=0;rotatable=0;part=1;html=1;whiteSpace=wrap;" parent="MHCaHPjammbPc1H4pTVP-39" vertex="1">
          <mxGeometry y="50" width="121" height="70" as="geometry" />
        </mxCell>
        <mxCell id="MHCaHPjammbPc1H4pTVP-41" value="&lt;div&gt;Curriculum&lt;/div&gt;" style="swimlane;childLayout=stackLayout;horizontal=1;startSize=50;horizontalStack=0;rounded=1;fontSize=14;fontStyle=0;strokeWidth=2;resizeParent=0;resizeLast=1;shadow=0;dashed=0;align=center;arcSize=4;whiteSpace=wrap;html=1;" parent="1" vertex="1">
          <mxGeometry x="280" y="40" width="121" height="160" as="geometry">
            <mxRectangle x="9" y="10" width="140" height="50" as="alternateBounds" />
          </mxGeometry>
        </mxCell>
        <mxCell id="MHCaHPjammbPc1H4pTVP-42" value="&lt;span style=&quot;font-size: 14px; text-align: center;&quot;&gt;id&lt;/span&gt;&lt;div&gt;&lt;span style=&quot;font-size: 14px; text-align: center; background-color: transparent; color: light-dark(rgb(0, 0, 0), rgb(255, 255, 255));&quot;&gt;subject_id&lt;/span&gt;&lt;/div&gt;&lt;div&gt;&lt;span style=&quot;font-size: 14px; text-align: center;&quot;&gt;lecture_hours&lt;/span&gt;&lt;/div&gt;&lt;div&gt;&lt;span style=&quot;font-size: 14px; text-align: right; background-color: transparent; color: light-dark(rgb(0, 0, 0), rgb(255, 255, 255));&quot;&gt;seminar_hours&lt;/span&gt;&lt;/div&gt;" style="align=left;strokeColor=none;fillColor=none;spacingLeft=4;spacingRight=4;fontSize=12;verticalAlign=top;resizable=0;rotatable=0;part=1;html=1;whiteSpace=wrap;" parent="MHCaHPjammbPc1H4pTVP-41" vertex="1">
          <mxGeometry y="50" width="121" height="110" as="geometry" />
        </mxCell>
        <mxCell id="MHCaHPjammbPc1H4pTVP-52" value="Teacher" style="swimlane;childLayout=stackLayout;horizontal=1;startSize=50;horizontalStack=0;rounded=1;fontSize=14;fontStyle=0;strokeWidth=2;resizeParent=0;resizeLast=1;shadow=0;dashed=0;align=center;arcSize=4;whiteSpace=wrap;html=1;" parent="1" vertex="1">
          <mxGeometry x="80" y="280" width="121" height="120" as="geometry">
            <mxRectangle x="9" y="10" width="140" height="50" as="alternateBounds" />
          </mxGeometry>
        </mxCell>
        <mxCell id="MHCaHPjammbPc1H4pTVP-53" value="&lt;font style=&quot;font-size: 14px;&quot;&gt;id&lt;/font&gt;&lt;div&gt;&lt;span style=&quot;font-size: 14px;&quot;&gt;name&lt;/span&gt;&lt;/div&gt;" style="align=left;strokeColor=none;fillColor=none;spacingLeft=4;spacingRight=4;fontSize=12;verticalAlign=top;resizable=0;rotatable=0;part=1;html=1;whiteSpace=wrap;" parent="MHCaHPjammbPc1H4pTVP-52" vertex="1">
          <mxGeometry y="50" width="121" height="70" as="geometry" />
        </mxCell>
        <mxCell id="MHCaHPjammbPc1H4pTVP-56" value="Schedule_period" style="swimlane;childLayout=stackLayout;horizontal=1;startSize=50;horizontalStack=0;rounded=1;fontSize=14;fontStyle=0;strokeWidth=2;resizeParent=0;resizeLast=1;shadow=0;dashed=0;align=center;arcSize=4;whiteSpace=wrap;html=1;" parent="1" vertex="1">
          <mxGeometry x="80" y="520" width="121" height="160" as="geometry">
            <mxRectangle x="9" y="10" width="140" height="50" as="alternateBounds" />
          </mxGeometry>
        </mxCell>
        <mxCell id="MHCaHPjammbPc1H4pTVP-57" value="&lt;font style=&quot;font-size: 14px;&quot;&gt;id&lt;/font&gt;&lt;div&gt;&lt;font style=&quot;font-size: 14px;&quot;&gt;name&lt;/font&gt;&lt;/div&gt;&lt;div&gt;&lt;font style=&quot;font-size: 14px;&quot;&gt;time_start&lt;/font&gt;&lt;/div&gt;&lt;div&gt;&lt;font style=&quot;font-size: 14px;&quot;&gt;time_end&lt;/font&gt;&lt;/div&gt;" style="align=left;strokeColor=none;fillColor=none;spacingLeft=4;spacingRight=4;fontSize=12;verticalAlign=top;resizable=0;rotatable=0;part=1;html=1;whiteSpace=wrap;" parent="MHCaHPjammbPc1H4pTVP-56" vertex="1">
          <mxGeometry y="50" width="121" height="110" as="geometry" />
        </mxCell>
        <mxCell id="MHCaHPjammbPc1H4pTVP-59" value="Schedule" style="swimlane;childLayout=stackLayout;horizontal=1;startSize=50;horizontalStack=0;rounded=1;fontSize=14;fontStyle=0;strokeWidth=2;resizeParent=0;resizeLast=1;shadow=0;dashed=0;align=center;arcSize=4;whiteSpace=wrap;html=1;" parent="1" vertex="1">
          <mxGeometry x="280" y="520" width="121" height="200" as="geometry">
            <mxRectangle x="9" y="10" width="140" height="50" as="alternateBounds" />
          </mxGeometry>
        </mxCell>
        <mxCell id="MHCaHPjammbPc1H4pTVP-60" value="&lt;font style=&quot;font-size: 14px;&quot;&gt;id&lt;/font&gt;&lt;div&gt;&lt;font style=&quot;font-size: 14px;&quot;&gt;date&lt;br&gt;&lt;/font&gt;&lt;div&gt;&lt;font style=&quot;font-size: 14px;&quot;&gt;period_id&lt;/font&gt;&lt;/div&gt;&lt;div&gt;&lt;font style=&quot;font-size: 14px;&quot;&gt;subject_id&lt;/font&gt;&lt;/div&gt;&lt;/div&gt;&lt;div&gt;&lt;font style=&quot;font-size: 14px;&quot;&gt;&lt;span style=&quot;background-color: transparent; color: light-dark(rgb(0, 0, 0), rgb(255, 255, 255));&quot;&gt;teacher_id&lt;/span&gt;&lt;/font&gt;&lt;/div&gt;&lt;div&gt;&lt;font style=&quot;font-size: 14px;&quot;&gt;&lt;span style=&quot;background-color: transparent; color: light-dark(rgb(0, 0, 0), rgb(255, 255, 255));&quot;&gt;group_id&lt;/span&gt;&lt;/font&gt;&lt;/div&gt;&lt;div&gt;&lt;font style=&quot;font-size: 14px;&quot;&gt;auditorium_id&lt;/font&gt;&lt;/div&gt;" style="align=left;strokeColor=none;fillColor=none;spacingLeft=4;spacingRight=4;fontSize=12;verticalAlign=top;resizable=0;rotatable=0;part=1;html=1;whiteSpace=wrap;" parent="MHCaHPjammbPc1H4pTVP-59" vertex="1">
          <mxGeometry y="50" width="121" height="150" as="geometry" />
        </mxCell>
        <mxCell id="MHCaHPjammbPc1H4pTVP-61" value="Subject_teacher" style="swimlane;childLayout=stackLayout;horizontal=1;startSize=50;horizontalStack=0;rounded=1;fontSize=14;fontStyle=0;strokeWidth=2;resizeParent=0;resizeLast=1;shadow=0;dashed=0;align=center;arcSize=4;whiteSpace=wrap;html=1;" parent="1" vertex="1">
          <mxGeometry x="280" y="280" width="121" height="120" as="geometry">
            <mxRectangle x="9" y="10" width="140" height="50" as="alternateBounds" />
          </mxGeometry>
        </mxCell>
        <mxCell id="MHCaHPjammbPc1H4pTVP-62" value="&lt;font style=&quot;font-size: 14px;&quot;&gt;id&lt;br&gt;&lt;/font&gt;&lt;div&gt;&lt;span style=&quot;font-size: 14px; background-color: transparent; color: light-dark(rgb(0, 0, 0), rgb(255, 255, 255));&quot;&gt;subject_id&lt;/span&gt;&lt;/div&gt;&lt;div&gt;&lt;span style=&quot;font-size: 14px;&quot;&gt;teacher_id&lt;/span&gt;&lt;/div&gt;" style="align=left;strokeColor=none;fillColor=none;spacingLeft=4;spacingRight=4;fontSize=12;verticalAlign=top;resizable=0;rotatable=0;part=1;html=1;whiteSpace=wrap;" parent="MHCaHPjammbPc1H4pTVP-61" vertex="1">
          <mxGeometry y="50" width="121" height="70" as="geometry" />
        </mxCell>
        <mxCell id="MHCaHPjammbPc1H4pTVP-63" value="Student_group" style="swimlane;childLayout=stackLayout;horizontal=1;startSize=50;horizontalStack=0;rounded=1;fontSize=14;fontStyle=0;strokeWidth=2;resizeParent=0;resizeLast=1;shadow=0;dashed=0;align=center;arcSize=4;whiteSpace=wrap;html=1;" parent="1" vertex="1">
          <mxGeometry x="80" y="800" width="121" height="120" as="geometry">
            <mxRectangle x="9" y="10" width="140" height="50" as="alternateBounds" />
          </mxGeometry>
        </mxCell>
        <mxCell id="MHCaHPjammbPc1H4pTVP-64" value="&lt;font style=&quot;font-size: 14px;&quot;&gt;id&lt;/font&gt;&lt;div&gt;&lt;div&gt;&lt;span style=&quot;font-size: 14px;&quot;&gt;name&lt;/span&gt;&lt;/div&gt;&lt;/div&gt;" style="align=left;strokeColor=none;fillColor=none;spacingLeft=4;spacingRight=4;fontSize=12;verticalAlign=top;resizable=0;rotatable=0;part=1;html=1;whiteSpace=wrap;" parent="MHCaHPjammbPc1H4pTVP-63" vertex="1">
          <mxGeometry y="50" width="121" height="70" as="geometry" />
        </mxCell>
        <mxCell id="MHCaHPjammbPc1H4pTVP-65" value="Auditorium" style="swimlane;childLayout=stackLayout;horizontal=1;startSize=50;horizontalStack=0;rounded=1;fontSize=14;fontStyle=0;strokeWidth=2;resizeParent=0;resizeLast=1;shadow=0;dashed=0;align=center;arcSize=4;whiteSpace=wrap;html=1;" parent="1" vertex="1">
          <mxGeometry x="80" y="1000" width="121" height="120" as="geometry">
            <mxRectangle x="9" y="10" width="140" height="50" as="alternateBounds" />
          </mxGeometry>
        </mxCell>
        <mxCell id="MHCaHPjammbPc1H4pTVP-66" value="&lt;font style=&quot;font-size: 14px;&quot;&gt;id&lt;/font&gt;&lt;div&gt;&lt;div&gt;&lt;font style=&quot;font-size: 14px;&quot;&gt;name&lt;/font&gt;&lt;/div&gt;&lt;/div&gt;" style="align=left;strokeColor=none;fillColor=none;spacingLeft=4;spacingRight=4;fontSize=12;verticalAlign=top;resizable=0;rotatable=0;part=1;html=1;whiteSpace=wrap;" parent="MHCaHPjammbPc1H4pTVP-65" vertex="1">
          <mxGeometry y="50" width="121" height="70" as="geometry" />
        </mxCell>
        <mxCell id="MHCaHPjammbPc1H4pTVP-69" value="&lt;font&gt;Допущения:&lt;/font&gt;&lt;div&gt;&lt;ul&gt;&lt;li&gt;Расписание планируется на семестр, по учебному плану&lt;/li&gt;&lt;li&gt;&lt;span style=&quot;background-color: transparent; color: light-dark(rgb(0, 0, 0), rgb(255, 255, 255));&quot;&gt;Нет необходимости внесения изменений в расписание, расписание исполняется&amp;nbsp;&lt;/span&gt;(преподаватели не болеют, только штатные, ...)&lt;/li&gt;&lt;li&gt;Преподаватель может вести несколько предметов&lt;/li&gt;&lt;li&gt;Может быть несколько занятий по одному предмету в день&lt;/li&gt;&lt;/ul&gt;&lt;/div&gt;&lt;span style=&quot;background-color: transparent; color: light-dark(rgb(0, 0, 0), rgb(255, 255, 255));&quot;&gt;&lt;div&gt;&lt;span style=&quot;background-color: transparent; color: light-dark(rgb(0, 0, 0), rgb(255, 255, 255));&quot;&gt;&lt;br&gt;&lt;/span&gt;&lt;/div&gt;&lt;/span&gt;&lt;div&gt;&lt;span style=&quot;background-color: transparent; color: light-dark(rgb(0, 0, 0), rgb(255, 255, 255));&quot;&gt;Ограничения&lt;/span&gt;&lt;span style=&quot;background-color: transparent; color: light-dark(rgb(0, 0, 0), rgb(255, 255, 255));&quot;&gt;:&lt;/span&gt;&lt;/div&gt;&lt;div&gt;&lt;ul&gt;&lt;li&gt;Одна аудитория на один предмет в &#39;period&#39;&lt;/li&gt;&lt;li&gt;Одна аудитория (лекция) для одной группы студентов&amp;nbsp; в &#39;period&#39;&lt;/li&gt;&lt;li&gt;Один преподаватель на одну аудиторию в&amp;nbsp;&amp;nbsp;&#39;period&#39;&lt;/li&gt;&lt;/ul&gt;&lt;div&gt;&lt;div&gt;&lt;br&gt;&lt;/div&gt;&lt;div&gt;Возможны изменения:&lt;/div&gt;&lt;div&gt;&lt;ul&gt;&lt;li&gt;&lt;span style=&quot;background-color: transparent; color: light-dark(rgb(0, 0, 0), rgb(255, 255, 255));&quot;&gt;Добавить возможность проведения лекции для нескольких групп студентов&lt;/span&gt;&lt;/li&gt;&lt;li&gt;Добавить специалисты (разное количество часов предмета по специалитетам)&lt;/li&gt;&lt;li&gt;Возможность внесения изменений, с учетом фактически проведенных занятий (добавить таблицу&amp;nbsp;&lt;span style=&quot;text-align: center;&quot;&gt;Classes_held&lt;/span&gt;)&lt;/li&gt;&lt;/ul&gt;&lt;br&gt;&lt;/div&gt;&lt;/div&gt;&lt;/div&gt;&lt;div&gt;TODO:&lt;/div&gt;&lt;div&gt;&lt;ul&gt;&lt;li&gt;Рассмотреть возможность&amp;nbsp;денормализации для упрощения запросов&lt;/li&gt;&lt;li&gt;Добавить индексы&lt;/li&gt;&lt;li&gt;Добавить связи в виде стрелок&lt;/li&gt;&lt;/ul&gt;&lt;/div&gt;" style="shape=note;size=20;whiteSpace=wrap;html=1;align=left;" parent="1" vertex="1">
          <mxGeometry x="440" y="520" width="360" height="600" as="geometry" />
        </mxCell>
      </root>
    </mxGraphModel>
  </diagram>
</mxfile>
